<svg width="51" height="51" viewBox="0 0 51 51" fill="none" xmlns="http://www.w3.org/2000/svg">
<path d="M29.6196 21.1356L21.2843 29.7683M29.7683 29.6196L21.1356 21.2843M38.4009 37.9549C36.759 39.6554 34.7983 41.0158 32.6306 41.9585C30.4629 42.9012 28.1308 43.4078 25.7673 43.4492C23.4039 43.4906 21.0555 43.0661 18.8561 42.1999C16.6567 41.3337 14.6495 40.0428 12.949 38.4009C11.2485 36.759 9.88807 34.7982 8.94536 32.6306C8.00265 30.4629 7.49613 28.1308 7.45471 25.7673C7.41329 23.4039 7.83779 21.0554 8.70398 18.8561C9.57016 16.6567 10.8611 14.6495 12.503 12.949C15.819 9.5147 20.3634 7.53835 25.1366 7.4547C29.9097 7.37105 34.5206 9.18696 37.9549 12.503C41.3892 15.8189 43.3655 20.3634 43.4492 25.1365C43.5328 29.9097 41.7169 34.5206 38.4009 37.9549Z" stroke="#94A3B8" stroke-width="3" stroke-linecap="round" stroke-linejoin="round"/>
</svg>
