<svg width="40" height="40" viewBox="0 0 40 40" fill="none" xmlns="http://www.w3.org/2000/svg">
<path d="M14.452 21.9517L18.952 26.4517L26.452 15.9517M38.452 20.4517C38.452 22.8155 37.9864 25.1561 37.0818 27.34C36.1772 29.5238 34.8513 31.5081 33.1799 33.1796C31.5084 34.851 29.5241 36.1769 27.3403 37.0815C25.1564 37.9861 22.8158 38.4517 20.452 38.4517C18.0882 38.4517 15.7475 37.9861 13.5637 37.0815C11.3798 36.1769 9.3955 34.851 7.72404 33.1796C6.05259 31.5081 4.72672 29.5238 3.82213 27.34C2.91755 25.1561 2.45197 22.8155 2.45197 20.4517C2.45197 15.6778 4.34839 11.0994 7.72404 7.72374C11.0997 4.34808 15.6781 2.45166 20.452 2.45166C25.2259 2.45166 29.8042 4.34808 33.1799 7.72374C36.5555 11.0994 38.452 15.6778 38.452 20.4517Z" stroke="#94A3B8" stroke-width="3" stroke-linecap="round" stroke-linejoin="round"/>
</svg>
