<svg width="371" height="72" viewBox="0 0 371 72" fill="none" xmlns="http://www.w3.org/2000/svg">
<path d="M20.5227 57H0.375V4.63636H20.3182C25.7045 4.63636 30.358 5.68466 34.2784 7.78125C38.2159 9.86079 41.25 12.8608 43.3807 16.7812C45.5284 20.6847 46.6023 25.3636 46.6023 30.8182C46.6023 36.2727 45.5369 40.9602 43.4062 44.8807C41.2756 48.7841 38.2585 51.7841 34.3551 53.8807C30.4517 55.9602 25.8409 57 20.5227 57ZM14.5909 44.9318H20.0114C22.6023 44.9318 24.8097 44.5142 26.6335 43.679C28.4744 42.8437 29.8722 41.4034 30.8267 39.358C31.7983 37.3125 32.2841 34.4659 32.2841 30.8182C32.2841 27.1705 31.7898 24.3239 30.8011 22.2784C29.8295 20.233 28.3977 18.7926 26.5057 17.9574C24.6307 17.1222 22.3295 16.7045 19.6023 16.7045H14.5909V44.9318ZM64.3274 57.6136C61.8217 57.6136 59.6058 57.2045 57.6797 56.3864C55.7706 55.5511 54.2706 54.2898 53.1797 52.6023C52.0888 50.9148 51.5433 48.767 51.5433 46.1591C51.5433 44.0114 51.9098 42.179 52.6428 40.6619C53.3757 39.1278 54.3984 37.875 55.7109 36.9034C57.0234 35.9318 58.549 35.1903 60.2876 34.679C62.0433 34.1676 63.9354 33.8352 65.9638 33.6818C68.1626 33.5114 69.9268 33.3068 71.2564 33.0682C72.603 32.8125 73.5746 32.4631 74.1712 32.0199C74.7678 31.5597 75.0661 30.9545 75.0661 30.2045V30.1023C75.0661 29.0795 74.674 28.2955 73.8899 27.75C73.1058 27.2045 72.1001 26.9318 70.8729 26.9318C69.5263 26.9318 68.4268 27.2301 67.5746 27.8267C66.7393 28.4062 66.2365 29.3011 66.0661 30.5114H53.0774C53.2479 28.125 54.0064 25.9261 55.353 23.9148C56.7166 21.8864 58.7024 20.267 61.3104 19.0568C63.9183 17.8295 67.174 17.2159 71.0774 17.2159C73.8899 17.2159 76.4126 17.5483 78.6456 18.2131C80.8786 18.8608 82.7791 19.7727 84.3473 20.9489C85.9155 22.108 87.1087 23.4716 87.9268 25.0398C88.7621 26.5909 89.1797 28.2784 89.1797 30.1023V57H75.9865V51.4773H75.6797C74.8956 52.9432 73.9411 54.1278 72.8161 55.0312C71.7081 55.9347 70.4382 56.5909 69.0064 57C67.5916 57.4091 66.032 57.6136 64.3274 57.6136ZM68.9297 48.7159C70.0036 48.7159 71.0092 48.4943 71.9467 48.0511C72.9013 47.608 73.6768 46.9687 74.2734 46.1335C74.87 45.2983 75.1683 44.2841 75.1683 43.0909V39.8182C74.7933 39.9716 74.3928 40.1165 73.9666 40.2528C73.5575 40.3892 73.1143 40.517 72.6371 40.6364C72.1768 40.7557 71.6825 40.8665 71.1541 40.9688C70.6428 41.071 70.1058 41.1648 69.5433 41.25C68.4524 41.4205 67.5575 41.7017 66.8587 42.0938C66.1768 42.4688 65.6655 42.9375 65.3246 43.5C65.0007 44.0455 64.8388 44.6591 64.8388 45.3409C64.8388 46.4318 65.2223 47.267 65.9893 47.8466C66.7564 48.4261 67.7365 48.7159 68.9297 48.7159ZM95.9233 57V17.7273H110.037V57H95.9233ZM102.98 13.6364C101.071 13.6364 99.4347 13.0057 98.071 11.7443C96.7074 10.483 96.0256 8.96591 96.0256 7.19318C96.0256 5.42045 96.7074 3.90341 98.071 2.64204C99.4347 1.38068 101.071 0.75 102.98 0.75C104.906 0.75 106.543 1.38068 107.889 2.64204C109.253 3.90341 109.935 5.42045 109.935 7.19318C109.935 8.96591 109.253 10.483 107.889 11.7443C106.543 13.0057 104.906 13.6364 102.98 13.6364ZM131.342 4.63636V57H117.228V4.63636H131.342ZM147.124 71.7273C145.504 71.7273 143.962 71.5994 142.496 71.3438C141.03 71.1051 139.743 70.7727 138.635 70.3466L141.703 60.3239C142.862 60.733 143.919 60.9972 144.874 61.1165C145.845 61.2358 146.672 61.1676 147.354 60.9119C148.053 60.6563 148.555 60.1705 148.862 59.4545L149.169 58.7386L135.362 17.7273H150.089L156.43 44.9318H156.839L163.283 17.7273H178.112L163.794 60.2727C163.078 62.4375 162.038 64.3807 160.675 66.1023C159.328 67.8409 157.555 69.2131 155.357 70.2188C153.158 71.2244 150.413 71.7273 147.124 71.7273ZM194.834 16.0909V4.63636H240.345V16.0909H224.595V57H210.584V16.0909H194.834ZM259.125 57.7159C254.864 57.7159 251.216 56.8722 248.182 55.1847C245.148 53.4801 242.821 51.1108 241.202 48.0767C239.582 45.0256 238.773 41.4886 238.773 37.4659C238.773 33.4432 239.582 29.9148 241.202 26.8807C242.821 23.8295 245.148 21.4602 248.182 19.7727C251.216 18.0682 254.864 17.2159 259.125 17.2159C263.386 17.2159 267.034 18.0682 270.068 19.7727C273.102 21.4602 275.429 23.8295 277.048 26.8807C278.668 29.9148 279.477 33.4432 279.477 37.4659C279.477 41.4886 278.668 45.0256 277.048 48.0767C275.429 51.1108 273.102 53.4801 270.068 55.1847C267.034 56.8722 263.386 57.7159 259.125 57.7159ZM259.227 47.2841C260.42 47.2841 261.452 46.8835 262.321 46.0824C263.19 45.2812 263.864 44.1392 264.341 42.6562C264.818 41.1733 265.057 39.4091 265.057 37.3636C265.057 35.3011 264.818 33.5369 264.341 32.071C263.864 30.5881 263.19 29.446 262.321 28.6449C261.452 27.8437 260.42 27.4432 259.227 27.4432C257.966 27.4432 256.884 27.8437 255.98 28.6449C255.077 29.446 254.386 30.5881 253.909 32.071C253.432 33.5369 253.193 35.3011 253.193 37.3636C253.193 39.4091 253.432 41.1733 253.909 42.6562C254.386 44.1392 255.077 45.2812 255.98 46.0824C256.884 46.8835 257.966 47.2841 259.227 47.2841ZM299.42 57.5114C296.625 57.5114 294.051 56.7784 291.699 55.3125C289.364 53.8466 287.489 51.6222 286.074 48.6392C284.676 45.6562 283.977 41.8977 283.977 37.3636C283.977 32.625 284.71 28.7727 286.176 25.8068C287.659 22.8409 289.568 20.6676 291.903 19.2869C294.256 17.9062 296.727 17.2159 299.318 17.2159C301.261 17.2159 302.966 17.5568 304.432 18.2386C305.898 18.9034 307.125 19.7983 308.114 20.9233C309.102 22.0312 309.852 23.25 310.364 24.5795H310.568V4.63636H324.682V57H310.67V50.5568H310.364C309.818 51.8864 309.034 53.0795 308.011 54.1364C307.006 55.1761 305.778 56.0028 304.33 56.6165C302.898 57.2131 301.261 57.5114 299.42 57.5114ZM304.636 46.6705C305.932 46.6705 307.04 46.2955 307.96 45.5455C308.898 44.7784 309.614 43.7045 310.108 42.3239C310.619 40.9261 310.875 39.2727 310.875 37.3636C310.875 35.4205 310.619 33.7585 310.108 32.3778C309.614 30.9801 308.898 29.9148 307.96 29.1818C307.04 28.4318 305.932 28.0568 304.636 28.0568C303.341 28.0568 302.233 28.4318 301.312 29.1818C300.409 29.9148 299.71 30.9801 299.216 32.3778C298.739 33.7585 298.5 35.4205 298.5 37.3636C298.5 39.3068 298.739 40.9773 299.216 42.375C299.71 43.7557 300.409 44.821 301.312 45.571C302.233 46.304 303.341 46.6705 304.636 46.6705ZM350.531 57.7159C346.27 57.7159 342.622 56.8722 339.588 55.1847C336.554 53.4801 334.227 51.1108 332.608 48.0767C330.989 45.0256 330.179 41.4886 330.179 37.4659C330.179 33.4432 330.989 29.9148 332.608 26.8807C334.227 23.8295 336.554 21.4602 339.588 19.7727C342.622 18.0682 346.27 17.2159 350.531 17.2159C354.793 17.2159 358.44 18.0682 361.474 19.7727C364.509 21.4602 366.835 23.8295 368.455 26.8807C370.074 29.9148 370.884 33.4432 370.884 37.4659C370.884 41.4886 370.074 45.0256 368.455 48.0767C366.835 51.1108 364.509 53.4801 361.474 55.1847C358.44 56.8722 354.793 57.7159 350.531 57.7159ZM350.634 47.2841C351.827 47.2841 352.858 46.8835 353.727 46.0824C354.597 45.2812 355.27 44.1392 355.747 42.6562C356.224 41.1733 356.463 39.4091 356.463 37.3636C356.463 35.3011 356.224 33.5369 355.747 32.071C355.27 30.5881 354.597 29.446 353.727 28.6449C352.858 27.8437 351.827 27.4432 350.634 27.4432C349.372 27.4432 348.29 27.8437 347.386 28.6449C346.483 29.446 345.793 30.5881 345.315 32.071C344.838 33.5369 344.599 35.3011 344.599 37.3636C344.599 39.4091 344.838 41.1733 345.315 42.6562C345.793 44.1392 346.483 45.2812 347.386 46.0824C348.29 46.8835 349.372 47.2841 350.634 47.2841Z" fill="#E2E8F0"/>
</svg>
