<svg width="142" height="165" viewBox="0 0 142 165" fill="none" xmlns="http://www.w3.org/2000/svg">
<path d="M92.0883 58.8791L89.378 129.379M51.872 129.379L49.1617 58.8791M127.244 33.7341C129.923 34.1414 132.587 34.5722 135.25 35.0344M127.244 33.7419L118.878 142.484C118.537 146.912 116.537 151.047 113.278 154.064C110.019 157.08 105.741 158.755 101.3 158.754H39.9497C35.5089 158.755 31.2313 157.08 27.9723 154.064C24.7133 151.047 22.7131 146.912 22.3717 142.484L14.0057 33.7341M127.244 33.7341C118.204 32.3673 109.116 31.33 100 30.6242M6 35.0266C8.66333 34.5644 11.3267 34.1336 14.0057 33.7341M14.0057 33.7341C23.0464 32.3673 32.1338 31.33 41.25 30.6242M100 30.6242V23.4489C100 14.2056 92.8717 6.49758 83.6283 6.20775C74.9617 5.93075 66.2883 5.93075 57.6217 6.20775C48.3783 6.49758 41.25 14.2134 41.25 23.4489V30.6242M100 30.6242C80.4458 29.113 60.8042 29.113 41.25 30.6242" stroke="#F3F4F6" stroke-width="11.75" stroke-linecap="round" stroke-linejoin="round"/>
</svg>
